<?xml version="1.0" encoding="UTF-8"?>
<svg version="1.1" xmlns="http://www.w3.org/2000/svg" width="786" height="860">
<path d="M0 0 C259.38 0 518.76 0 786 0 C786 283.8 786 567.6 786 860 C526.62 860 267.24 860 0 860 C0 576.2 0 292.4 0 0 Z " fill="#FEFEFE" transform="translate(0,0)"/>
<path d="M0 0 C1.77150421 0.65639465 1.77150421 0.65639465 3.57879639 1.3260498 C4.86752884 1.81169903 6.1562029 2.29750323 7.44482422 2.78344727 C8.8133593 3.29367857 10.18211948 3.80330647 11.55108643 4.31237793 C15.26003855 5.69371248 18.96560427 7.08392829 22.67058563 8.47587204 C26.60731774 9.9532186 30.54705423 11.42251426 34.48632812 12.89306641 C44.28693279 16.554076 54.08139277 20.23137459 63.87451172 23.91235352 C64.62888519 24.19584656 65.38325867 24.4793396 66.16049194 24.77142334 C81.16012073 30.40839746 96.15482881 36.05837366 111.14628601 41.71704102 C129.56781007 48.67036601 147.99963368 55.59591144 166.43719864 62.50658417 C168.68059734 63.3474493 170.92396651 64.18839319 173.16732788 65.02935791 C182.95967222 68.70013674 192.75237809 72.36995048 202.54518127 76.039505 C216.05110374 81.10045475 229.55681605 86.16196461 243.06201172 91.22485352 C244.2044956 91.65313698 244.2044956 91.65313698 245.37005997 92.09007263 C268.22053488 100.65623571 291.0619899 109.24551763 313.87451172 117.91235352 C313.87451172 125.50235352 313.87451172 133.09235352 313.87451172 140.91235352 C99.70451172 140.91235352 -114.46548828 140.91235352 -335.12548828 140.91235352 C-335.12548828 133.32235352 -335.12548828 125.73235352 -335.12548828 117.91235352 C-319.41505123 111.51776859 -303.56174425 105.55984602 -287.6519165 99.68606567 C-279.86814018 96.81211143 -272.08857011 93.92679741 -264.30908203 91.04125977 C-263.51002441 90.74493841 -262.7109668 90.44861706 -261.88769531 90.14331627 C-244.81977744 83.81250552 -227.78144686 77.40431146 -210.75048828 70.97485352 C-209.32314603 70.43611195 -207.89579819 69.89738519 -206.46844482 69.3586731 C-205.7592049 69.09099153 -205.04996498 68.82330996 -204.31923294 68.54751682 C-201.44304227 67.46200329 -198.56684638 66.37650357 -195.69062805 65.29106331 C-194.24897842 64.74700435 -192.80733819 64.20292044 -191.3657074 63.65881157 C-174.35725662 57.23983496 -157.33603527 50.85500159 -140.31298828 44.47485352 C-139.57585979 44.19857243 -138.83873131 43.92229134 -138.07926559 43.63763809 C-131.3671457 41.12190441 -124.65495431 38.60636154 -117.94264221 36.09114075 C-107.54385635 32.19439135 -97.14625515 28.29449227 -86.74925804 24.39297295 C-81.8200524 22.54331353 -76.89073482 20.69395241 -71.96143055 18.84455585 C-68.04355241 17.37459587 -64.12574352 15.9044519 -60.20809937 14.43386841 C-59.4643081 14.15469354 -58.72051683 13.87551867 -57.95418644 13.58788395 C-56.48518593 13.03648913 -55.01621359 12.48501924 -53.54727077 11.93347073 C-50.07947302 10.63181478 -46.6108393 9.33249102 -43.14006042 8.0388031 C-37.45272039 5.91795125 -31.77243364 3.78569086 -26.12402344 1.56274414 C-25.24478714 1.22225037 -24.36555084 0.88175659 -23.45967102 0.53094482 C-21.91119445 -0.06994757 -20.36721182 -0.68265947 -18.82975769 -1.31121826 C-12.04151061 -3.91884177 -6.62007082 -2.474674 0 0 Z " fill="#010101" transform="translate(402.12548828125,55.087646484375)"/>
<path d="M0 0 C187.77 0 375.54 0 569 0 C569 13.53 569 27.06 569 41 C381.23 41 193.46 41 0 41 C0 27.47 0 13.94 0 0 Z " fill="#000000" transform="translate(107,209)"/>
<path d="M0 0 C1.02057999 0.36936172 2.04115997 0.73872345 3.09266663 1.11927795 C4.7472715 1.72430397 4.7472715 1.72430397 6.43530273 2.34155273 C8.17528786 2.97298439 8.17528786 2.97298439 9.95042419 3.61717224 C13.1013852 4.76140648 16.25116077 5.90880065 19.40045166 7.05761719 C22.71254223 8.26492663 26.02614725 9.46806507 29.33959961 10.67163086 C35.3297079 12.84810726 41.3186009 15.02790358 47.30686378 17.20945168 C53.00251537 19.28435325 58.6991995 21.35640648 64.39624023 23.42749023 C69.6055568 25.32141442 74.81479499 27.21555083 80.0234375 29.11132812 C94.65124277 34.43455763 109.28740943 39.73458987 123.92470169 45.03166962 C162.57828619 59.02022769 201.20823292 73.07187296 239.80639648 87.21264648 C239.80639648 87.54264648 239.80639648 87.87264648 239.80639648 88.21264648 C75.46639648 88.21264648 -88.87360352 88.21264648 -258.19360352 88.21264648 C-255.59610378 86.48097999 -253.61489302 85.52758372 -250.72460938 84.48291016 C-249.80854919 84.14957672 -248.89248901 83.81624329 -247.94866943 83.47280884 C-246.94539612 83.11238495 -245.9421228 82.75196106 -244.90844727 82.38061523 C-243.32172211 81.80517471 -243.32172211 81.80517471 -241.70294189 81.21810913 C-238.18035789 79.94165698 -234.6557376 78.67092571 -231.13110352 77.40014648 C-228.64374588 76.50004298 -226.15650812 75.59961524 -223.66943359 74.69873047 C-218.4589512 72.81198133 -213.24751554 70.92788802 -208.03540039 69.0456543 C-200.58115366 66.35360357 -193.12924567 63.65512138 -185.67797852 60.95483398 C-169.96618722 55.26175343 -154.25188297 49.57562516 -138.53747559 43.88977051 C-110.43762022 33.72239923 -82.34054025 23.54753363 -54.25610352 13.33764648 C-53.11928131 12.92449188 -51.98245911 12.51133728 -50.81118774 12.08566284 C-48.61078445 11.28587959 -46.41050936 10.48574351 -44.21037292 9.68522644 C-42.1279133 8.92805864 -40.04493044 8.17232808 -37.96138 7.41816711 C-33.15354246 5.67425198 -28.36088344 3.90228552 -23.59155273 2.05541992 C-22.28183754 1.55399979 -22.28183754 1.55399979 -20.94566345 1.04244995 C-19.33016041 0.4218873 -17.71843076 -0.2086348 -16.11158752 -0.85128784 C-9.79662192 -3.2642853 -6.15671205 -2.24020631 0 0 Z " fill="#FCFCFC" transform="translate(400.193603515625,75.787353515625)"/>
<path d="M0 0 C26.73 0 53.46 0 81 0 C81 5.61 81 11.22 81 17 C79.02 17.66 77.04 18.32 75 19 C71.30680923 22.99263867 69.87737703 25.45471243 69.8613348 30.82198524 C69.85586036 31.84660225 69.85038591 32.87121925 69.84474558 33.92688525 C69.84376747 35.06110741 69.84278936 36.19532958 69.84178162 37.36392212 C69.83684364 38.56211181 69.83190566 39.7603015 69.82681805 40.99479997 C69.81407448 44.33095152 69.80580892 47.66706101 69.79939139 51.00322723 C69.79140215 54.59696659 69.77769932 58.19068456 69.76467896 61.78440857 C69.74289521 68.01422076 69.72475768 74.24403509 69.70907402 80.47386551 C69.68639265 89.4812314 69.65824744 98.48857365 69.62875474 107.49591951 C69.58105755 122.10859737 69.53779914 136.72128488 69.49731445 151.33398438 C69.45797034 165.53158317 69.41654673 179.72917337 69.37231445 193.92675781 C69.36959018 194.80142207 69.36686591 195.67608633 69.36405908 196.57725556 C69.35037978 200.96504728 69.33665948 205.35283886 69.32291877 209.74063039 C69.20892058 246.16040244 69.10211863 282.5801928 69 319 C71.97 319 74.94 319 78 319 C78 329.23 78 339.46 78 350 C68.1 350 58.2 350 48 350 C48 245.06 48 140.12 48 32 C42.39 32 36.78 32 31 32 C31 136.94 31 241.88 31 350 C21.43 350 11.86 350 2 350 C2 339.77 2 329.54 2 319 C4.97 319 7.94 319 11 319 C10.96401789 281.64821277 10.90710649 244.29651344 10.82207905 206.94480451 C10.81206145 202.53628277 10.80221734 198.12776065 10.79248047 193.71923828 C10.7905391 192.8415714 10.78859772 191.96390452 10.78659752 191.05964167 C10.75556637 176.84380717 10.73859376 162.62798882 10.72680578 148.41212682 C10.71439999 133.82811169 10.68691155 119.24418138 10.64538693 104.66021979 C10.62023511 95.65925792 10.60688395 86.6584367 10.60857043 77.65743919 C10.60860016 71.48725625 10.59399524 65.31721671 10.56783572 59.14708965 C10.55317069 55.58583809 10.54500293 52.02488063 10.55419731 48.46360397 C10.56399548 44.60317998 10.54299937 40.74327376 10.51898193 36.88290405 C10.52674235 35.7564423 10.53450277 34.62998055 10.54249835 33.4693836 C10.47744824 27.58202067 10.34442112 23.41814884 6 19 C4.02 18.34 2.04 17.68 0 17 C0 11.39 0 5.78 0 0 Z " fill="#000000" transform="translate(138,260)"/>
<path d="M0 0 C26.73 0 53.46 0 81 0 C81 5.61 81 11.22 81 17 C79.02 17.66 77.04 18.32 75 19 C71.30680923 22.99263867 69.87737703 25.45471243 69.8613348 30.82198524 C69.85586036 31.84660225 69.85038591 32.87121925 69.84474558 33.92688525 C69.84376747 35.06110741 69.84278936 36.19532958 69.84178162 37.36392212 C69.83684364 38.56211181 69.83190566 39.7603015 69.82681805 40.99479997 C69.81407448 44.33095152 69.80580892 47.66706101 69.79939139 51.00322723 C69.79140215 54.59696659 69.77769932 58.19068456 69.76467896 61.78440857 C69.74289521 68.01422076 69.72475768 74.24403509 69.70907402 80.47386551 C69.68639265 89.4812314 69.65824744 98.48857365 69.62875474 107.49591951 C69.58105755 122.10859737 69.53779914 136.72128488 69.49731445 151.33398438 C69.45797034 165.53158317 69.41654673 179.72917337 69.37231445 193.92675781 C69.36959018 194.80142207 69.36686591 195.67608633 69.36405908 196.57725556 C69.35037978 200.96504728 69.33665948 205.35283886 69.32291877 209.74063039 C69.20892058 246.16040248 69.10219229 282.58019298 69 319 C72.3 319 75.6 319 79 319 C79 329.23 79 339.46 79 350 C69.1 350 59.2 350 49 350 C49 245.06 49 140.12 49 32 C43.39 32 37.78 32 32 32 C32 136.94 32 241.88 32 350 C22.43 350 12.86 350 3 350 C3 339.77 3 329.54 3 319 C5.97 319 8.94 319 12 319 C11.96401777 281.77560668 11.90710619 244.55130155 11.82207905 207.32698678 C11.81206145 202.93348631 11.80221734 198.53998547 11.79248047 194.14648438 C11.7905391 193.27180811 11.78859772 192.39713184 11.78659752 191.49595024 C11.7555665 177.3286147 11.73859379 163.16129536 11.72680578 148.99393223 C11.71439993 134.45963748 11.68691134 119.92542785 11.64538693 105.39118683 C11.62023529 96.42093431 11.60688393 87.45082292 11.60857043 78.48053463 C11.60860016 72.33137624 11.59399497 66.18236176 11.56783572 60.03325944 C11.5531709 56.48415918 11.54500274 52.93535401 11.55419731 49.38622856 C11.56399576 45.53894111 11.54299898 41.69217317 11.51898193 37.84494019 C11.52674235 36.72236938 11.53450277 35.59979858 11.54249835 34.44321048 C11.45892739 26.90504657 10.37420854 23.37420854 5 18 C3.35 17.67 1.7 17.34 0 17 C0 11.39 0 5.78 0 0 Z " fill="#000000" transform="translate(564,260)"/>
<path d="M0 0 C26.73 0 53.46 0 81 0 C81 5.61 81 11.22 81 17 C79.02 17.66 77.04 18.32 75 19 C71.30680923 22.99263867 69.87737703 25.45471243 69.8613348 30.82198524 C69.85586036 31.84660225 69.85038591 32.87121925 69.84474558 33.92688525 C69.84376747 35.06110741 69.84278936 36.19532958 69.84178162 37.36392212 C69.83684364 38.56211181 69.83190566 39.7603015 69.82681805 40.99479997 C69.81407448 44.33095152 69.80580892 47.66706101 69.79939139 51.00322723 C69.79140215 54.59696659 69.77769932 58.19068456 69.76467896 61.78440857 C69.74289521 68.01422076 69.72475768 74.24403509 69.70907402 80.47386551 C69.68639265 89.4812314 69.65824744 98.48857365 69.62875474 107.49591951 C69.58105755 122.10859737 69.53779914 136.72128488 69.49731445 151.33398438 C69.45797034 165.53158317 69.41654673 179.72917337 69.37231445 193.92675781 C69.36959018 194.80142207 69.36686591 195.67608633 69.36405908 196.57725556 C69.35037978 200.96504728 69.33665948 205.35283886 69.32291877 209.74063039 C69.20892058 246.16040244 69.10211863 282.5801928 69 319 C71.97 319 74.94 319 78 319 C78 329.23 78 339.46 78 350 C68.43 350 58.86 350 49 350 C49 245.06 49 140.12 49 32 C43.39 32 37.78 32 32 32 C32 136.94 32 241.88 32 350 C22.43 350 12.86 350 3 350 C3 339.77 3 329.54 3 319 C5.97 319 8.94 319 12 319 C11.96401777 281.77560668 11.90710619 244.55130155 11.82207905 207.32698678 C11.81206145 202.93348631 11.80221734 198.53998547 11.79248047 194.14648438 C11.7905391 193.27180811 11.78859772 192.39713184 11.78659752 191.49595024 C11.7555665 177.3286147 11.73859379 163.16129536 11.72680578 148.99393223 C11.71439993 134.45963748 11.68691134 119.92542785 11.64538693 105.39118683 C11.62023529 96.42093431 11.60688393 87.45082292 11.60857043 78.48053463 C11.60860016 72.33137624 11.59399497 66.18236176 11.56783572 60.03325944 C11.5531709 56.48415918 11.54500274 52.93535401 11.55419731 49.38622856 C11.56399576 45.53894111 11.54299898 41.69217317 11.51898193 37.84494019 C11.52674235 36.72236938 11.53450277 35.59979858 11.54249835 34.44321048 C11.45892739 26.90504657 10.37420854 23.37420854 5 18 C3.35 17.67 1.7 17.34 0 17 C0 11.39 0 5.78 0 0 Z " fill="#000000" transform="translate(422,260)"/>
<path d="M0 0 C26.73 0 53.46 0 81 0 C81 5.61 81 11.22 81 17 C79.02 17.66 77.04 18.32 75 19 C71.30680923 22.99263867 69.87737703 25.45471243 69.8613348 30.82198524 C69.85586036 31.84660225 69.85038591 32.87121925 69.84474558 33.92688525 C69.84376747 35.06110741 69.84278936 36.19532958 69.84178162 37.36392212 C69.83684364 38.56211181 69.83190566 39.7603015 69.82681805 40.99479997 C69.81407448 44.33095152 69.80580892 47.66706101 69.79939139 51.00322723 C69.79140215 54.59696659 69.77769932 58.19068456 69.76467896 61.78440857 C69.74289521 68.01422076 69.72475768 74.24403509 69.70907402 80.47386551 C69.68639265 89.4812314 69.65824744 98.48857365 69.62875474 107.49591951 C69.58105755 122.10859737 69.53779914 136.72128488 69.49731445 151.33398438 C69.45797034 165.53158317 69.41654673 179.72917337 69.37231445 193.92675781 C69.36959018 194.80142207 69.36686591 195.67608633 69.36405908 196.57725556 C69.35037978 200.96504728 69.33665948 205.35283886 69.32291877 209.74063039 C69.20892058 246.16040244 69.10211863 282.5801928 69 319 C71.97 319 74.94 319 78 319 C78 329.23 78 339.46 78 350 C68.43 350 58.86 350 49 350 C49 245.06 49 140.12 49 32 C43.39 32 37.78 32 32 32 C32 136.94 32 241.88 32 350 C22.43 350 12.86 350 3 350 C3 339.77 3 329.54 3 319 C5.97 319 8.94 319 12 319 C11.96401777 281.77560668 11.90710619 244.55130155 11.82207905 207.32698678 C11.81206145 202.93348631 11.80221734 198.53998547 11.79248047 194.14648438 C11.7905391 193.27180811 11.78859772 192.39713184 11.78659752 191.49595024 C11.7555665 177.3286147 11.73859379 163.16129536 11.72680578 148.99393223 C11.71439993 134.45963748 11.68691134 119.92542785 11.64538693 105.39118683 C11.62023529 96.42093431 11.60688393 87.45082292 11.60857043 78.48053463 C11.60860016 72.33137624 11.59399497 66.18236176 11.56783572 60.03325944 C11.5531709 56.48415918 11.54500274 52.93535401 11.55419731 49.38622856 C11.56399576 45.53894111 11.54299898 41.69217317 11.51898193 37.84494019 C11.52674235 36.72236938 11.53450277 35.59979858 11.54249835 34.44321048 C11.45892739 26.90504657 10.37420854 23.37420854 5 18 C3.35 17.67 1.7 17.34 0 17 C0 11.39 0 5.78 0 0 Z " fill="#000000" transform="translate(280,260)"/>
<path d="M0 0 C239.91 0 479.82 0 727 0 C727 6.6 727 13.2 727 20 C487.09 20 247.18 20 0 20 C0 13.4 0 6.8 0 0 Z " fill="#000000" transform="translate(28,759)"/>
<path d="M0 0 C214.17 0 428.34 0 649 0 C649 5.94 649 11.88 649 18 C434.83 18 220.66 18 0 18 C0 12.06 0 6.12 0 0 Z " fill="#000000" transform="translate(67,702)"/>
<path d="M0 0 C214.17 0 428.34 0 649 0 C649 5.94 649 11.88 649 18 C434.83 18 220.66 18 0 18 C0 12.06 0 6.12 0 0 Z " fill="#000000" transform="translate(67,675)"/>
<path d="M0 0 C239.91 0 479.82 0 727 0 C727 4.95 727 9.9 727 15 C487.09 15 247.18 15 0 15 C0 10.05 0 5.1 0 0 Z " fill="#000000" transform="translate(28,734)"/>
<path d="M0 0 C44.55 0 89.1 0 135 0 C135 13.53 135 27.06 135 41 C90.45 41 45.9 41 0 41 C0 27.47 0 13.94 0 0 Z " fill="#000000" transform="translate(541,621)"/>
<path d="M0 0 C44.55 0 89.1 0 135 0 C135 13.53 135 27.06 135 41 C90.45 41 45.9 41 0 41 C0 27.47 0 13.94 0 0 Z " fill="#000000" transform="translate(107,621)"/>
<path d="M0 0 C40.92 0 81.84 0 124 0 C124 13.53 124 27.06 124 41 C83.08 41 42.16 41 0 41 C0 27.47 0 13.94 0 0 Z " fill="#000000" transform="translate(400,621)"/>
<path d="M0 0 C40.92 0 81.84 0 124 0 C124 13.53 124 27.06 124 41 C83.08 41 42.16 41 0 41 C0 27.47 0 13.94 0 0 Z " fill="#000000" transform="translate(259,621)"/>
<path d="M0 0 C207.57 0 415.14 0 629 0 C629 1.98 629 3.96 629 6 C421.43 6 213.86 6 0 6 C0 4.02 0 2.04 0 0 Z " fill="#FFFFFF" transform="translate(77,178)"/>
<path d="M0 0 C0.96808594 -0.01675781 1.93617188 -0.03351563 2.93359375 -0.05078125 C5.5625 0.3125 5.5625 0.3125 7.41015625 1.70703125 C8.5625 3.3125 8.5625 3.3125 8.5625 5.3125 C9.2225 4.9825 9.8825 4.6525 10.5625 4.3125 C13.875 3.9375 13.875 3.9375 17.5625 4.3125 C20.375 6.6875 20.375 6.6875 22.5625 9.3125 C23.2225 9.9725 23.8825 10.6325 24.5625 11.3125 C25.18226946 13.8604411 25.57876869 16.41243624 26 19 C26.39343987 21.49007117 26.39343987 21.49007117 28.5625 23.3125 C28.8984375 25.80859375 28.8984375 25.80859375 28.9375 28.75 C28.96585937 29.71808594 28.99421875 30.68617187 29.0234375 31.68359375 C28.5625 34.3125 28.5625 34.3125 26.5390625 36.16015625 C25.88679688 36.54042969 25.23453125 36.92070313 24.5625 37.3125 C23.9025 36.6525 23.2425 35.9925 22.5625 35.3125 C23.0575 36.0859375 23.0575 36.0859375 23.5625 36.875 C24.93270241 40.21486837 24.9523913 42.73849644 24.5625 46.3125 C22.6875 48.25 22.6875 48.25 20.5625 49.3125 C19.9025 49.3125 19.2425 49.3125 18.5625 49.3125 C18.2325 50.6325 17.9025 51.9525 17.5625 53.3125 C16.94761719 53.26609375 16.33273437 53.2196875 15.69921875 53.171875 C14.89097656 53.13578125 14.08273437 53.0996875 13.25 53.0625 C12.44949219 53.01609375 11.64898437 52.9696875 10.82421875 52.921875 C8.38210337 53.07256349 8.38210337 53.07256349 7.1171875 55.30859375 C5.5625 57.3125 5.5625 57.3125 2.93359375 57.73828125 C1.96550781 57.70089844 0.99742187 57.66351563 0 57.625 C-0.97066406 57.60050781 -1.94132812 57.57601562 -2.94140625 57.55078125 C-5.4375 57.3125 -5.4375 57.3125 -7.4375 56.3125 C-7.4375 55.6525 -7.4375 54.9925 -7.4375 54.3125 C-8.10136719 54.29832031 -8.76523437 54.28414062 -9.44921875 54.26953125 C-16.74460935 53.87547366 -16.74460935 53.87547366 -20.4375 50.875 C-21.0975 50.029375 -21.7575 49.18375 -22.4375 48.3125 C-23.0975 47.6525 -23.7575 46.9925 -24.4375 46.3125 C-24.6328125 44.1484375 -24.6328125 44.1484375 -24.5625 41.6875 C-24.53542969 40.46160156 -24.53542969 40.46160156 -24.5078125 39.2109375 C-24.48460937 38.58445313 -24.46140625 37.95796875 -24.4375 37.3125 C-25.4275 36.9825 -26.4175 36.6525 -27.4375 36.3125 C-28.88600498 27.25934385 -28.88600498 27.25934385 -28.4375 23.3125 C-26.4375 21.5625 -26.4375 21.5625 -24.4375 20.3125 C-24.4375 19.6525 -24.4375 18.9925 -24.4375 18.3125 C-24.4375 15.97916667 -24.4375 13.64583333 -24.4375 11.3125 C-23.81875 11.250625 -23.2 11.18875 -22.5625 11.125 C-20.16932415 10.49025641 -20.16932415 10.49025641 -19.25 7.8125 C-18.981875 6.9875 -18.71375 6.1625 -18.4375 5.3125 C-16.39042386 3.26542386 -12.55577332 3.38454968 -9.78515625 2.91015625 C-5.71667464 1.87441967 -4.64890232 0.01852152 0 0 Z " fill="#C6C6C6" transform="translate(391.4375,89.6875)"/>
<path d="M0 0 C0.53625 -0.38671875 1.0725 -0.7734375 1.625 -1.171875 C14.72054695 -9.87352133 29.22227785 -10.67172483 44.4375 -10.4375 C45.68413925 -10.4267746 45.68413925 -10.4267746 46.95596313 -10.41583252 C69.01170333 -10.21915814 90.28721756 -6.95112455 111.94995117 -3.06982422 C122.95760501 -1.10252745 133.61696517 0.17943986 144.8125 0.1875 C145.72708984 0.19974609 146.64167969 0.21199219 147.58398438 0.22460938 C152.15674631 0.23458631 155.85743485 0.19720961 160 -2 C160 -3.98 160 -5.96 160 -8 C161.9375 -8.5625 161.9375 -8.5625 164 -9 C164.33 -8.67 164.66 -8.34 165 -8 C164.875 -4.625 164.875 -4.625 164 -1 C149.04574156 10.60003225 120.55041077 5.27276223 103.34255981 3.13998413 C92.43942402 1.76273377 81.55783477 0.27399297 70.703125 -1.4453125 C35.1194221 -8.035028 35.1194221 -8.035028 2.15625 2.98828125 C0 4 0 4 -2.0546875 3.2890625 C-2.69664062 2.86367187 -3.33859375 2.43828125 -4 2 C-13.58009173 -3.16655602 -22.38995328 -5.56435258 -33.3125 -5.5 C-34.40046875 -5.49790527 -35.4884375 -5.49581055 -36.609375 -5.49365234 C-55.29497214 -5.15555659 -74.37301377 -2.27997597 -92.64648438 1.54443359 C-106.54168127 4.23410552 -120.8060716 5.27768344 -134.9375 5.3125 C-135.98357422 5.31781738 -137.02964844 5.32313477 -138.10742188 5.32861328 C-147.32702533 5.24434173 -156.77876736 4.78141636 -164.60546875 -0.55859375 C-166 -2 -166 -2 -166.5 -5.3125 C-166.335 -6.199375 -166.17 -7.08625 -166 -8 C-164.68 -8.33 -163.36 -8.66 -162 -9 C-161.20046862 -5.71303767 -160.90341064 -4.28976808 -162 -1 C-145.86320153 2.91987007 -128.65831618 -0.58676911 -112.625 -3.3125 C-111.67877777 -3.47267609 -110.73255554 -3.63285217 -109.75765991 -3.79788208 C-106.01283189 -4.43313938 -102.26864093 -5.07202049 -98.52507019 -5.71464539 C-27.19257013 -17.95735763 -27.19257013 -17.95735763 0 0 Z " fill="#0F0F0F" transform="translate(392,154)"/>
<path d="M0 0 C0.96808594 -0.01675781 1.93617188 -0.03351563 2.93359375 -0.05078125 C5.5625 0.3125 5.5625 0.3125 7.41015625 1.70703125 C8.5625 3.3125 8.5625 3.3125 8.5625 5.3125 C9.2225 4.9825 9.8825 4.6525 10.5625 4.3125 C13.875 3.9375 13.875 3.9375 17.5625 4.3125 C20.375 6.6875 20.375 6.6875 22.5625 9.3125 C23.2225 9.9725 23.8825 10.6325 24.5625 11.3125 C24.72656841 15.3595207 24.22128293 19.17460221 22.1875 22.6875 C20.64583333 24.22916667 19.10416667 25.77083333 17.5625 27.3125 C14.2625 26.3225 10.9625 25.3325 7.5625 24.3125 C7.5625 23.6525 7.5625 22.9925 7.5625 22.3125 C2.6754572 20.7486463 -2.5504572 20.7486463 -7.4375 22.3125 C-7.4375 22.9725 -7.4375 23.6325 -7.4375 24.3125 C-14.86607143 26.45535714 -14.86607143 26.45535714 -18.4375 27.3125 C-18.7675 25.0025 -19.0975 22.6925 -19.4375 20.3125 C-18.7775 19.9825 -18.1175 19.6525 -17.4375 19.3125 C-17.4375 18.3225 -17.4375 17.3325 -17.4375 16.3125 C-19.3826 19.23015 -19.89026317 20.93787285 -20.4375 24.3125 C-22.6852975 22.26016315 -23.4397242 21.30582739 -24.4375 18.3125 C-24.47704234 15.97950175 -24.48151732 13.64541811 -24.4375 11.3125 C-23.81875 11.250625 -23.2 11.18875 -22.5625 11.125 C-20.16932415 10.49025641 -20.16932415 10.49025641 -19.25 7.8125 C-18.981875 6.9875 -18.71375 6.1625 -18.4375 5.3125 C-16.39042386 3.26542386 -12.55577332 3.38454968 -9.78515625 2.91015625 C-5.71667464 1.87441967 -4.64890232 0.01852152 0 0 Z " fill="#CBCBCB" transform="translate(391.4375,89.6875)"/>
<path d="M0 0 C1.2065625 0.0309375 1.2065625 0.0309375 2.4375 0.0625 C2.499375 1.135 2.56125 2.2075 2.625 3.3125 C3.09895959 7.19781961 3.09895959 7.19781961 6 9.5 C6.804375 10.015625 7.60875 10.53125 8.4375 11.0625 C8.25 12.9375 8.25 12.9375 7.4375 15.0625 C3.55668449 17.34533265 -0.14487048 17.70506429 -4.5625 17.0625 C-7.09181611 14.27376685 -8.31855856 12.1737888 -9.125 8.5 C-8.30892982 4.96369587 -6.23588676 3.40986399 -3.5625 1.0625 C-2.5625 0.0625 -2.5625 0.0625 0 0 Z " fill="#060606" transform="translate(380.5625,115.9375)"/>
<path d="M0 0 C1.41891872 0.0961203 2.83720294 0.21198495 4.25 0.375 C7.20047835 4.98512242 8.7997272 7.74029617 8.25 13.375 C7.26 13.705 6.27 14.035 5.25 14.375 C4.59 14.045 3.93 13.715 3.25 13.375 C-0.64304529 13.23081314 -3.99843587 13.3649635 -7.75 14.375 C-8.75 13.375 -8.75 13.375 -9.0625 10.1875 C-8.53780897 3.78626947 -6.71501776 0.01057483 0 0 Z " fill="#060606" transform="translate(391.75,97.625)"/>
<path d="M0 0 C2.125 -0.4375 2.125 -0.4375 5 0 C7.40658016 2.04587494 9.39109715 4.27979312 11 7 C11 8.32 11 9.64 11 11 C10.34 11 9.68 11 9 11 C8.87625 11.804375 8.7525 12.60875 8.625 13.4375 C8.41875 14.283125 8.2125 15.12875 8 16 C4.93570224 17.53214888 2.3834358 17.22938548 -1 17 C-3.9375 15.6875 -3.9375 15.6875 -6 14 C-6 13.01 -6 12.02 -6 11 C-5.195625 10.4225 -4.39125 9.845 -3.5625 9.25 C-0.63980321 7.13352047 -0.63980321 7.13352047 -0.1875 3.25 C-0.125625 2.1775 -0.06375 1.105 0 0 Z " fill="#040404" transform="translate(400,116)"/>
<path d="M0 0 C2 1.625 2 1.625 3 4 C2.87988224 7.42335626 2.60726153 9.95416069 0.875 12.9375 C-2.18452459 14.6712306 -4.56817525 14.42145216 -8 14 C-10.4375 12.4375 -10.4375 12.4375 -12 10 C-12.5625 6.5 -12.5625 6.5 -12 3 C-8.33340589 -1.4443565 -5.38867153 -1.59664341 0 0 Z " fill="#272727" transform="translate(396,112)"/>
<path d="M0 0 C2.8125 2.375 2.8125 2.375 5 5 C5.66 5.66 6.32 6.32 7 7 C7.08203125 9.0234375 7.08203125 9.0234375 6.8125 11.375 C6.73644531 12.14585938 6.66039062 12.91671875 6.58203125 13.7109375 C6 16 6 16 3 20 C2.01 16.7 1.02 13.4 0 10 C-1.423125 9.95875 -2.84625 9.9175 -4.3125 9.875 C-6.796875 9.62109375 -6.796875 9.62109375 -9 9 C-11.0625 5.9375 -11.0625 5.9375 -12 3 C-7.91821657 0.03143024 -5.02104714 -0.71729245 0 0 Z " fill="#0D0D0D" transform="translate(409,94)"/>
<path d="M0 0 C3.69253671 4.92338228 4.53939764 6.85086686 4 13 C2.125 14.9375 2.125 14.9375 0 16 C-0.66 16 -1.32 16 -2 16 C-2.33 17.32 -2.66 18.64 -3 20 C-10.38461538 20.49230769 -10.38461538 20.49230769 -13.5 18 C-13.995 17.34 -14.49 16.68 -15 16 C-14.0625 13.5625 -14.0625 13.5625 -12 11 C-8.94427696 10.23065129 -6.17628865 10.13809951 -3 10 C-2.01 6.7 -1.02 3.4 0 0 Z " fill="#0A0A0A" transform="translate(412,123)"/>
<path d="M0 0 C0.33 0 0.66 0 1 0 C1.11214844 0.62648438 1.22429687 1.25296875 1.33984375 1.8984375 C1.97755027 4.54095996 2.6093277 6.65621897 4 9 C6.32715599 9.92306187 8.42263951 10.17831737 10.90234375 10.47265625 C13 11 13 11 15.0625 14.125 C15.5265625 15.548125 15.5265625 15.548125 16 17 C11.83947896 19.37744059 8.81244915 20.81914028 4 20 C1.25 17.625 1.25 17.625 -1 15 C-1.66 14.34 -2.32 13.68 -3 13 C-3.50442453 7.75398486 -2.64964989 4.52648522 0 0 Z " fill="#0A0A0A" transform="translate(370,123)"/>
<path d="M0 0 C1.9609375 0.015625 1.9609375 0.015625 4.375 0.25 C5.16648437 0.31703125 5.95796875 0.3840625 6.7734375 0.453125 C9.35133561 1.08629296 10.32367504 1.98841004 12 4 C11.0625 6.375 11.0625 6.375 9 9 C6.90234375 9.4609375 6.90234375 9.4609375 4.5 9.75 C2.09874934 10.03744616 2.09874934 10.03744616 0 11 C-1.69657531 13.86462248 -2.41630289 16.73934715 -3 20 C-5.2477975 17.94766315 -6.0022242 16.99332739 -7 14 C-7.03954234 11.66700175 -7.04401732 9.33291811 -7 7 C-6.38125 6.938125 -5.7625 6.87625 -5.125 6.8125 C-2.73182415 6.17775641 -2.73182415 6.17775641 -1.8125 3.5 C-1.544375 2.675 -1.27625 1.85 -1 1 C-0.67 0.67 -0.34 0.34 0 0 Z " fill="#090909" transform="translate(374,94)"/>
<path d="M0 0 C0.22786458 2.01822917 0.45572917 4.03645833 0.68359375 6.0546875 C0.91292961 8.07404316 0.91292961 8.07404316 2 10 C-5.42857143 12.14285714 -5.42857143 12.14285714 -9 13 C-9.33 10.69 -9.66 8.38 -10 6 C-9.34 5.67 -8.68 5.34 -8 5 C-7.835 4.34 -7.67 3.68 -7.5 3 C-7.335 2.34 -7.17 1.68 -7 1 C-4.53721199 -0.231394 -2.7204945 -0.07159196 0 0 Z " fill="#0C0C0C" transform="translate(382,104)"/>
<path d="M0 0 C3.08375495 1.02791832 3.87790925 1.70106836 6 4 C6.556875 4.556875 7.11375 5.11375 7.6875 5.6875 C8.3371875 6.3371875 8.3371875 6.3371875 9 7 C8.0625 9 8.0625 9 6 11 C2.89575217 11.65322161 0.09832962 11.69813386 -3 11 C-5.0625 8.5 -5.0625 8.5 -6 6 C-5.195625 5.566875 -4.39125 5.13375 -3.5625 4.6875 C-0.72153646 3.19525998 -0.72153646 3.19525998 0 0 Z " fill="#090909" transform="translate(390,128)"/>
<path d="M0 0 C1.96875 1.15625 1.96875 1.15625 4 3 C4.53125 5.59375 4.53125 5.59375 4.5 8.5 C4.5103125 9.4590625 4.520625 10.418125 4.53125 11.40625 C4 14 4 14 0 17 C-1.98 14.03 -3.96 11.06 -6 8 C-5.38125 7.236875 -4.7625 6.47375 -4.125 5.6875 C-1.94402948 3.00374191 -1.94402948 3.00374191 0 0 Z " fill="#080808" transform="translate(416,110)"/>
<path d="M0 0 C2.38672669 2.96283313 4.7353371 5.94270509 7 9 C4.79020692 11.81939117 2.59937954 14.53058944 0 17 C-2.28928166 15.207335 -2.94918203 14.33081505 -3.3984375 11.40625 C-3.39070313 10.4471875 -3.38296875 9.488125 -3.375 8.5 C-3.38273437 7.5409375 -3.39046875 6.581875 -3.3984375 5.59375 C-2.94918203 2.66918495 -2.28928166 1.792665 0 0 Z " fill="#070707" transform="translate(366,110)"/>
<path d="M0 0 C2.875 0.1875 2.875 0.1875 6 1 C7.375 3.5625 7.375 3.5625 8 6 C8.66 6 9.32 6 10 6 C9.67 7.98 9.34 9.96 9 12 C4.91621923 12 1.87684087 11.19287411 -2 10 C-1.34 6.7 -0.68 3.4 0 0 Z " fill="#080808" transform="translate(401,104)"/>
<path d="M0 0 C0.66 0.33 1.32 0.66 2 1 C1.67 2.32 1.34 3.64 1 5 C0.34 5 -0.32 5 -1 5 C-0.67 7.31 -0.34 9.62 0 12 C3.3 10.68 6.6 9.36 10 8 C9.67 7.67 9.34 7.34 9 7 C8.95936168 5.33382885 8.957279 3.66611905 9 2 C9.66 3.32 10.32 4.64 11 6 C12.65 5.67 14.3 5.34 16 5 C16 5.66 16 6.32 16 7 C12.28713294 9.27318391 9.42521951 10.88846701 5.1875 12 C1.97810211 12.67917668 1.97810211 12.67917668 0.5625 14.8125 C-0.46908009 18.82420034 -0.48101529 21.09809633 1.5 24.8125 C2.2425 25.8953125 2.2425 25.8953125 3 27 C2.01 27 1.02 27 0 27 C-0.99 24.69 -1.98 22.38 -3 20 C-3.66 20.33 -4.32 20.66 -5 21 C-3.87548273 18.0280615 -2.77706209 15.66559313 -1 13 C-1.99 12.01 -2.98 11.02 -4 10 C-2.8905928 6.51329166 -1.73662334 3.22515763 0 0 Z " fill="#BBBBBB" transform="translate(373,105)"/>
<path d="M0 0 C0.9590625 -0.01933594 1.918125 -0.03867188 2.90625 -0.05859375 C5.5 0.4375 5.5 0.4375 7.34375 2.46484375 C7.7253125 3.11582031 8.106875 3.76679687 8.5 4.4375 C5.86701229 7.18496544 3.67866359 7.72348997 0 7.875 C-3.42112274 7.77918602 -4.2641673 7.62156455 -7.0625 5.4375 C-7.7740625 4.4475 -7.7740625 4.4475 -8.5 3.4375 C-5.96140723 0.20422475 -4.02317789 0.0054075 0 0 Z " fill="#0D0D0D" transform="translate(391.5,89.5625)"/>
<path d="M0 0 C1.9375 1.5625 1.9375 1.5625 3 3 C1.207335 5.28928166 0.33081505 5.94918203 -2.59375 6.3984375 C-3.5528125 6.39070312 -4.511875 6.38296875 -5.5 6.375 C-6.4590625 6.38273438 -7.418125 6.39046875 -8.40625 6.3984375 C-11.33081505 5.94918203 -12.207335 5.28928166 -14 3 C-9.86113981 -1.75968921 -5.96305185 -1.30102949 0 0 Z " fill="#070707" transform="translate(397,141)"/>
<path d="M0 0 C0.66 0.99 1.32 1.98 2 3 C-0.97 7.455 -0.97 7.455 -4 12 C-3.34 13.32 -2.68 14.64 -2 16 C-2.75 19 -2.75 19 -4 22 C-4.309375 22.763125 -4.61875 23.52625 -4.9375 24.3125 C-6 26 -6 26 -9 27 C-9 26.34 -9 25.68 -9 25 C-8.34 25 -7.68 25 -7 25 C-6.67 23.35 -6.34 21.7 -6 20 C-5.34 20 -4.68 20 -4 20 C-6.0307326 14.31428087 -6.0307326 14.31428087 -10 10 C-13.10007201 8.79950593 -13.10007201 8.79950593 -16 8 C-16 7.67 -16 7.34 -16 7 C-12.53058454 7.45822468 -9.32604951 7.89131683 -6 9 C-5.34 7.02 -4.68 5.04 -4 3 C-3.34 3.66 -2.68 4.32 -2 5 C-1.34 3.35 -0.68 1.7 0 0 Z " fill="#C5C5C5" transform="translate(415,107)"/>
<path d="M0 0 C0.99 0.33 1.98 0.66 3 1 C3 1.66 3 2.32 3 3 C1.43880578 3.79423861 -0.12401964 4.58527123 -1.6875 5.375 C-2.99267578 6.03628906 -2.99267578 6.03628906 -4.32421875 6.7109375 C-6.84772799 7.92664268 -9.38737532 8.99260958 -12 10 C-12.99 8.68 -13.98 7.36 -15 6 C-14.34 5.67 -13.68 5.34 -13 5 C-12.01 5.33 -11.02 5.66 -10 6 C-7.53188648 4.75322937 -7.53188648 4.75322937 -5 3 C-2.375 1.25 -2.375 1.25 0 0 Z " fill="#161616" transform="translate(402,148)"/>
<path d="M0 0 C2.0625 0.4375 2.0625 0.4375 4 1 C3.67 3.31 3.34 5.62 3 8 C4.65 8.33 6.3 8.66 8 9 C8.33 9.99 8.66 10.98 9 12 C1.61744966 9.81879195 1.61744966 9.81879195 -1 7 C-1.3125 3.875 -1.3125 3.875 -1 1 C-0.67 0.67 -0.34 0.34 0 0 Z " fill="#161616" transform="translate(227,145)"/>
<path d="M0 0 C2.0625 0.4375 2.0625 0.4375 4 1 C3.8125 4.3125 3.8125 4.3125 3 8 C0.6875 10.0625 0.6875 10.0625 -2 11 C-4.3125 10.1875 -4.3125 10.1875 -6 9 C-4.35 8.34 -2.7 7.68 -1 7 C-1.020625 6.030625 -1.04125 5.06125 -1.0625 4.0625 C-1 1 -1 1 0 0 Z " fill="#171717" transform="translate(553,145)"/>
<path d="M0 0 C0.66 0 1.32 0 2 0 C1.938125 1.051875 1.87625 2.10375 1.8125 3.1875 C2.0077786 7.15816493 2.70325068 8.84196969 5 12 C4.01 12 3.02 12 2 12 C1.01 9.69 0.02 7.38 -1 5 C-1.99 5.495 -1.99 5.495 -3 6 C-1.125 1.125 -1.125 1.125 0 0 Z " fill="#CCCCCC" transform="translate(371,120)"/>
<path d="M0 0 C1.65 0 3.3 0 5 0 C5 1.65 5 3.3 5 5 C3.35 5 1.7 5 0 5 C-0.33 4.01 -0.66 3.02 -1 2 C-0.67 1.34 -0.34 0.68 0 0 Z " fill="#080808" transform="translate(389,116)"/>
<path d="M0 0 C0.66 0.99 1.32 1.98 2 3 C1.04956626 4.33897583 0.08940853 5.67105427 -0.875 7 C-1.40867187 7.7425 -1.94234375 8.485 -2.4921875 9.25 C-2.98976563 9.8275 -3.48734375 10.405 -4 11 C-4.66 11 -5.32 11 -6 11 C-5.34 8.36 -4.68 5.72 -4 3 C-3.34 3.66 -2.68 4.32 -2 5 C-1.34 3.35 -0.68 1.7 0 0 Z " fill="#CFCFCF" transform="translate(415,107)"/>
<path d="M0 0 C0.61875 0.165 1.2375 0.33 1.875 0.5 C4.16786836 1.23577017 4.16786836 1.23577017 7 0 C6.67 1.32 6.34 2.64 6 4 C4.68 4.33 3.36 4.66 2 5 C1.01 3.68 0.02 2.36 -1 1 C-0.67 0.67 -0.34 0.34 0 0 Z " fill="#242424" transform="translate(388,153)"/>
<path d="M0 0 C4.4571874 0.26218749 6.51522698 0.57711289 9.9375 3.5625 C10.618125 4.366875 11.29875 5.17125 12 6 C11.01 6 10.02 6 9 6 C8.3503125 5.319375 8.3503125 5.319375 7.6875 4.625 C5.40220764 2.4243481 3.00910851 1.86929801 0 1 C0 0.67 0 0.34 0 0 Z " fill="#A5A5A5" transform="translate(399,114)"/>
</svg>
