<svg viewBox="0 0 120 120" fill="none" xmlns="http://www.w3.org/2000/svg">
  <!-- Pediment -->
  <line x1="60" y1="3" x2="112" y2="30" stroke="currentColor" stroke-width="2.5" stroke-linecap="square"/>
  <line x1="60" y1="3" x2="8" y2="30" stroke="currentColor" stroke-width="2.5" stroke-linecap="square"/>
  <line x1="8" y1="30" x2="112" y2="30" stroke="currentColor" stroke-width="2.5" stroke-linecap="square"/>
  <!-- Circle decoration in pediment -->
  <circle cx="60" cy="18" r="5" stroke="currentColor" stroke-width="1.5" fill="none"/>
  <line x1="52" y1="23" x2="68" y2="23" stroke="currentColor" stroke-width="1.5"/>
  <!-- Entablature bar -->
  <rect x="8" y="30" width="104" height="5" fill="currentColor"/>
  <!-- Column pair 1 -->
  <rect x="14" y="35" width="3.5" height="46" fill="currentColor"/>
  <rect x="20" y="35" width="3.5" height="46" fill="currentColor"/>
  <!-- Column pair 2 -->
  <rect x="37" y="35" width="3.5" height="46" fill="currentColor"/>
  <rect x="43" y="35" width="3.5" height="46" fill="currentColor"/>
  <!-- Column pair 3 -->
  <rect x="63" y="35" width="3.5" height="46" fill="currentColor"/>
  <rect x="69" y="35" width="3.5" height="46" fill="currentColor"/>
  <!-- Column pair 4 -->
  <rect x="86" y="35" width="3.5" height="46" fill="currentColor"/>
  <rect x="92" y="35" width="3.5" height="46" fill="currentColor"/>
  <!-- Column bases -->
  <rect x="11" y="81" width="16" height="4" fill="currentColor"/>
  <rect x="34" y="81" width="16" height="4" fill="currentColor"/>
  <rect x="60" y="81" width="16" height="4" fill="currentColor"/>
  <rect x="83" y="81" width="16" height="4" fill="currentColor"/>
  <!-- Steps -->
  <rect x="8" y="85" width="104" height="5" fill="currentColor"/>
  <rect x="4" y="90" width="112" height="5" fill="currentColor"/>
  <rect x="0" y="95" width="120" height="5" fill="currentColor"/>
</svg>
